/* XPM */
static char *result[] = {
/* columns rows colors chars-per-pixel */
"49 48 4 1 ",
"  c #7A3045",
". c #9E4539",
"X c #CD683D",
"o c #E6904E",
/* pixels */
"XXXXooo   XXXoooXXXoooooooooXXX   XXXXXXooooooooo",
"XXXXooo   XXXoooXXXoooooooooXXX   XXXXXXooooooooo",
"XXXXooo   XXXoooXXXoooooooooXXX   XXXXXXooooooooo",
"XXXXXXX   XXXXXXXXXXXXXXXXXXXXX   XXXXXXXXXXXXXXX",
"XXXXXXX   XXXXXXXXXXXXXXXXXXXXX   XXXXXXXXXXXXXXX",
"XXXXXXX   XXXXXXXXXXXXXXXXXXXXX   XXXXXXXXXXXXXXX",
".XXX...   ...XXXXXXXXXXXXXXX...   ...XXXXXXXXXXXX",
".XXX...   ...XXXXXXXXXXXXXXX...   ...XXXXXXXXXXXX",
".XXX...   ...XXXXXXXXXXXXXXX...   ...XXXXXXXXXXXX",
"                                                 ",
"                                                 ",
"                                                 ",
"X   oooXXXXXXXXXoooooo   oooXXXXXXooooooXXXooo   ",
"X   oooXXXXXXXXXoooooo   oooXXXXXXooooooXXXooo   ",
"X   oooXXXXXXXXXoooooo   oooXXXXXXooooooXXXooo   ",
"X   XXXXXXXXXXXXXXXXXX   XXXXXXXXXXXXXXXXXXXXX   ",
"X   XXXXXXXXXXXXXXXXXX   XXXXXXXXXXXXXXXXXXXXX   ",
"X   XXXXXXXXXXXXXXXXXX   XXXXXXXXXXXXXXXXXXXXX   ",
".   ...XXXXXXXXXXXX...   ...XXXXXXXXXXXXXXX...   ",
".   ...XXXXXXXXXXXX...   ...XXXXXXXXXXXXXXX...   ",
".   ...XXXXXXXXXXXX...   ...XXXXXXXXXXXXXXX...   ",
"                                                 ",
"                                                 ",
"                                                 ",
"XXXX   ...XXXoooXXXooooooXXXXXX   XXXooooooXXXooo",
"XXXX   ...XXXoooXXXooooooXXXXXX   XXXooooooXXXooo",
"XXXX   ...XXXoooXXXooooooXXXXXX   XXXooooooXXXooo",
"XXXX      ...XXXXXXXXXXXXXXXXXX   XXXXXXXXXXXXXXX",
"XXXX      ...XXXXXXXXXXXXXXXXXX   XXXXXXXXXXXXXXX",
"XXXX      ...XXXXXXXXXXXXXXXXXX   XXXXXXXXXXXXXXX",
".XXX      ...XXXXXXXXXXXXXXX...   ...XXXXXXXXXXXX",
".XXX      ...XXXXXXXXXXXXXXX...   ...XXXXXXXXXXXX",
".XXX      ...XXXXXXXXXXXXXXX...   ...XXXXXXXXXXXX",
"                                                 ",
"                                                 ",
"                                                 ",
"X   oooXXXXXXXXXoooooo   oooXXXXXXooooooXXXooo   ",
"X   oooXXXXXXXXXoooooo   oooXXXXXXooooooXXXooo   ",
"X   oooXXXXXXXXXoooooo   oooXXXXXXooooooXXXooo   ",
"X   XXXXXXXXXXXXXXXXXX   XXXXXXXXXXXXXXXXXXXXX   ",
"X   XXXXXXXXXXXXXXXXXX   XXXXXXXXXXXXXXXXXXXXX   ",
"X   XXXXXXXXXXXXXXXXXX   XXXXXXXXXXXXXXXXXXXXX   ",
".   XXXXXXXXXXXXXXX...   ...XXXXXXXXXXXXXXX...   ",
".   XXXXXXXXXXXXXXX...   ...XXXXXXXXXXXXXXX...   ",
".   XXXXXXXXXXXXXXX...   ...XXXXXXXXXXXXXXX...   ",
"                                                 ",
"                                                 ",
"                                                 "
};
