/* XPM */
static char *result[] = {
/* columns rows colors chars-per-pixel */
"48 48 3 1 ",
"  c #0B8A8F",
". c #0EAF9B",
"X c #30E1B9",
/* pixels */
"................................................",
"................................................",
"................................................",
"................................................",
"................................................",
"................................................",
"................................................",
"................................................",
"......XXX.......................................",
"......XXX.......................................",
"......XXX.......................................",
"......   ........................XXX............",
"......   ........................XXX............",
"......   ........................XXX............",
"....................................   .........",
"....................................   .........",
"....................................   .........",
"................................................",
"................................................",
"................................................",
"................................................",
"................................................",
"................................................",
"................................................",
"................................................",
"................................................",
"..................XXX...........................",
"..................XXX...........................",
"..................XXX...........................",
"..................   ...........................",
"..................   ...........................",
"..................   ...........................",
".......................................XXX......",
".......................................XXX......",
".......................................XXX......",
"....................................   .........",
"....................................   .........",
"....................................   .........",
".........XXX....................................",
".........XXX....................................",
".........XXX....................................",
"............   .................................",
"............   .................................",
"............   .................................",
"................................................",
"................................................",
"................................................",
"................................................"
};
