/* XPM */
static char *result[] = {
/* columns rows colors chars-per-pixel */
"48 48 9 1 ",
"  c #0B5E65",
". c #484A77",
"X c #0B8A8F",
"o c #0EAF9B",
"O c #30E1B9",
"+ c #4D9BE6",
"@ c #8FD3FF",
"# c #8FF8E2",
"$ c #0EAF9B",
/* pixels */
"$$$$$$$$$$$$$$$XXXXXX$$$XXXXXXXXX$$$$$$$$$$$$$$$",
"$$$$$$$$$$$$$$$XXXXXX$$$XXXXXXXXX$$$$$$$$$$$$$$$",
"$$$$$$$$$$$$$$$XXXXXX$$$XXXXXXXXX$$$$$$$$$$$$$$$",
"$$$$$$$$$XXXXXXooooooXXXoooooooooXXX$$$$$$$$$$$$",
"$$$$$$$$$XXXXXXooooooXXXoooooooooXXX$$$$$$$$$$$$",
"$$$$$$$$$XXXXXXooooooXXXoooooooooXXX$$$$$$$$$$$$",
"$$$$$$XXXooo......OOOoooOOO######oooXXXXXX$$$$$$",
"$$$$$$XXXooo......OOOoooOOO######oooXXXXXX$$$$$$",
"$$$$$$XXXooo......OOOoooOOO######oooXXXXXX$$$$$$",
"$$$$$$XXX...@@@+++...OOOOOOOOOooo###OOOoooXXX$$$",
"$$$$$$XXX...@@@+++...OOOOOOOOOooo###OOOoooXXX$$$",
"$$$$$$XXX...@@@+++...OOOOOOOOOooo###OOOoooXXX$$$",
"$$$XXXoooXXX++++++XXX###OOOOOOOOO......oooXXX$$$",
"$$$XXXoooXXX++++++XXX###OOOOOOOOO......oooXXX$$$",
"$$$XXXoooXXX++++++XXX###OOOOOOOOO......oooXXX$$$",
"XXXooo###oooXXXXXXoooOOOOOOOOO...@@@+++...XXX$$$",
"XXXooo###oooXXXXXXoooOOOOOOOOO...@@@+++...XXX$$$",
"XXXooo###oooXXXXXXoooOOOOOOOOO...@@@+++...XXX$$$",
"XXX###OOOOOOoooOOOOOOOOOOOOOOOXXX++++++XXXOOOXXX",
"XXX###OOOOOOoooOOOOOOOOOOOOOOOXXX++++++XXXOOOXXX",
"XXX###OOOOOOoooOOOOOOOOOOOOOOOXXX++++++XXXOOOXXX",
"XXXOOOOOOoooOOOOOO......###OOOoooXXXXXXXXXoooXXX",
"XXXOOOOOOoooOOOOOO......###OOOoooXXXXXXXXXoooXXX",
"XXXOOOOOOoooOOOOOO......###OOOoooXXXXXXXXXoooXXX",
"   oooXXXOOO###...@@@+++...###ooooooXXXOOOooo   ",
"   oooXXXOOO###...@@@+++...###ooooooXXXOOOooo   ",
"   oooXXXOOO###...@@@+++...###ooooooXXXOOOooo   ",
"   XXXooo###OOOXXX++++++XXXoooOOOOOO###oooXXX   ",
"   XXXooo###OOOXXX++++++XXXoooOOOOOO###oooXXX   ",
"   XXXooo###OOOXXX++++++XXXoooOOOOOO###oooXXX   ",
"XXX   XXXoooOOOoooXXXXXXOOOooooooOOOoooXXX   XXX",
"XXX   XXXoooOOOoooXXXXXXOOOooooooOOOoooXXX   XXX",
"XXX   XXXoooOOOoooXXXXXXOOOooooooOOOoooXXX   XXX",
"XXX   XXXXXXoooOOOooooooOOOoooXXXoooXXXXXX   XXX",
"XXX   XXXXXXoooOOOooooooOOOoooXXXoooXXXXXX   XXX",
"XXX   XXXXXXoooOOOooooooOOOoooXXXoooXXXXXX   XXX",
"XXXXXX   XXXXXXoooXXXXXXoooXXXoooXXXXXX   XXXXXX",
"XXXXXX   XXXXXXoooXXXXXXoooXXXoooXXXXXX   XXXXXX",
"XXXXXX   XXXXXXoooXXXXXXoooXXXoooXXXXXX   XXXXXX",
"$$$XXXXXX      XXXXXXXXXXXXXXXXXX      XXXXXX$$$",
"$$$XXXXXX      XXXXXXXXXXXXXXXXXX      XXXXXX$$$",
"$$$XXXXXX      XXXXXXXXXXXXXXXXXX      XXXXXX$$$",
"$$$$$$XXXXXXXXX                  XXXXXXXXX$$$$$$",
"$$$$$$XXXXXXXXX                  XXXXXXXXX$$$$$$",
"$$$$$$XXXXXXXXX                  XXXXXXXXX$$$$$$",
"$$$$$$$$$$$$$$$XXXXXXXXXXXXXXXXXX$$$$$$$$$$$$$$$",
"$$$$$$$$$$$$$$$$$$$$$$$$$$$$$$$$$$$$$$$$$$$$$$$$",
"$$$$$$$$$$$$$$$$$$$$$$$$$$$$$$$$$$$$$$$$$$$$$$$$"
};
