/* XPM */
static char *result[] = {
/* columns rows colors chars-per-pixel */
"48 48 9 1 ",
"  c #165A4C",
". c #AE2334",
"X c #E83B3B",
"o c #FB6B1D",
"O c #239063",
"+ c #1EBC73",
"@ c #F79617",
"# c #F9C22B",
"$ c #0EAF9B",
/* pixels */
"$$$$$$$$$$$$$$$$$$$$$$$$$$$$$$$$$$$$$$$$$$$$$$$$",
"$$$$$$$$$$$$$$$$$$$$$$$$$$$$$$$$$$$$$$$$$$$$$$$$",
"$$$$$$$$$$$$$$$$$$$$$$$$$$$$$$$$$$$$$$$$$$$$$$$$",
"$$$$$$$$$$$$$$$$$$$$$$$$$$$$$$$$$$$$$$$$$$$$$$$$",
"$$$$$$$$$$$$$$$$$$$$$$$$$$$$$$$$$$$$$$$$$$$$$$$$",
"$$$$$$$$$$$$$$$$$$$$$$$$$$$$$$$$$$$$$$$$$$$$$$$$",
"$$$$$$$$$$$$$$$$$$$$$$$$$$$++++++$$$$$$$$$$$$$$$",
"$$$$$$$$$$$$$$$$$$$$$$$$$$$++++++$$$$$$$$$$$$$$$",
"$$$$$$$$$$$$$$$$$$$$$$$$$$$++++++$$$$$$$$$$$$$$$",
"$$$$$$$$$$$$$$$$$$$$$$$$+++OOOOOO$$$$$$$$$$$$$$$",
"$$$$$$$$$$$$$$$$$$$$$$$$+++OOOOOO$$$$$$$$$$$$$$$",
"$$$$$$$$$$$$$$$$$$$$$$$$+++OOOOOO$$$$$$$$$$$$$$$",
"$$$$$$$$$$$$$$$......+++OOOOOO...$$$$$$$$$$$$$$$",
"$$$$$$$$$$$$$$$......+++OOOOOO...$$$$$$$$$$$$$$$",
"$$$$$$$$$$$$$$$......+++OOOOOO...$$$$$$$$$$$$$$$",
"$$$$$$$$$......ooo@@@OOOOOO@@@ooo......$$$$$$$$$",
"$$$$$$$$$......ooo@@@OOOOOO@@@ooo......$$$$$$$$$",
"$$$$$$$$$......ooo@@@OOOOOO@@@ooo......$$$$$$$$$",
"$$$$$$...ooo######XXX      XXX######ooo...$$$$$$",
"$$$$$$...ooo######XXX      XXX######ooo...$$$$$$",
"$$$$$$...ooo######XXX      XXX######ooo...$$$$$$",
"$$$...ooo@@@ooo@@@oooXXXXXXooo@@@ooo@@@ooo...$$$",
"$$$...ooo@@@ooo@@@oooXXXXXXooo@@@ooo@@@ooo...$$$",
"$$$...ooo@@@ooo@@@oooXXXXXXooo@@@ooo@@@ooo...$$$",
"$$$...@@@ooo######@@@oooooo@@@######ooo@@@...$$$",
"$$$...@@@ooo######@@@oooooo@@@######ooo@@@...$$$",
"$$$...@@@ooo######@@@oooooo@@@######ooo@@@...$$$",
"$$$...@@@ooo@@@ooo############ooo@@@@@@ooo...$$$",
"$$$...@@@ooo@@@ooo############ooo@@@@@@ooo...$$$",
"$$$...@@@ooo@@@ooo############ooo@@@@@@ooo...$$$",
"$$$...oooXXX@@@ooo###@@@@@@@@@ooo@@@XXXooo...$$$",
"$$$...oooXXX@@@ooo###@@@@@@@@@ooo@@@XXXooo...$$$",
"$$$...oooXXX@@@ooo###@@@@@@@@@ooo@@@XXXooo...$$$",
"$$$...XXXXXXoooooo@@@@@@@@@@@@ooooooXXXXXX...$$$",
"$$$...XXXXXXoooooo@@@@@@@@@@@@ooooooXXXXXX...$$$",
"$$$...XXXXXXoooooo@@@@@@@@@@@@ooooooXXXXXX...$$$",
"$$$$$$...XXXoooXXXooo@@@@@@oooXXXoooXXX...$$$$$$",
"$$$$$$...XXXoooXXXooo@@@@@@oooXXXoooXXX...$$$$$$",
"$$$$$$...XXXoooXXXooo@@@@@@oooXXXoooXXX...$$$$$$",
"$$$$$$$$$......XXXXXXooooooXXXXXX......$$$$$$$$$",
"$$$$$$$$$......XXXXXXooooooXXXXXX......$$$$$$$$$",
"$$$$$$$$$......XXXXXXooooooXXXXXX......$$$$$$$$$",
"$$$$$$$$$$$$$$$..................$$$$$$$$$$$$$$$",
"$$$$$$$$$$$$$$$..................$$$$$$$$$$$$$$$",
"$$$$$$$$$$$$$$$..................$$$$$$$$$$$$$$$",
"$$$$$$$$$$$$$$$$$$$$$$$$$$$$$$$$$$$$$$$$$$$$$$$$",
"$$$$$$$$$$$$$$$$$$$$$$$$$$$$$$$$$$$$$$$$$$$$$$$$",
"$$$$$$$$$$$$$$$$$$$$$$$$$$$$$$$$$$$$$$$$$$$$$$$$"
};
