/* XPM */
static char *result[] = {
/* columns rows colors chars-per-pixel */
"48 48 11 1 ",
"  c #2E222F",
". c #3E3546",
"X c #0B5E65",
"o c #694F62",
"O c #7F708A",
"+ c #0B8A8F",
"@ c #0EAF9B",
"# c #30E1B9",
"$ c #9BABB2",
"% c #8FF8E2",
"& c #C7DCD0",
/* pixels */
"@@@###%%%+++@@@@@@%%%%%%@@@@@@%%%+++%%%XXX@@@@@@",
"@@@###%%%+++@@@@@@%%%%%%@@@@@@%%%+++%%%XXX@@@@@@",
"@@@###%%%+++@@@@@@%%%%%%@@@@@@%%%+++%%%XXX@@@@@@",
"+++@@@###%%%@@@%%%###@@@+++%%%###XXX###%%%%%%###",
"+++@@@###%%%@@@%%%###@@@+++%%%###XXX###%%%%%%###",
"+++@@@###%%%@@@%%%###@@@+++%%%###XXX###%%%%%%###",
"+++XXX@@@###+++###@@@XXXXXX###@@@XXX@@@%%%###@@@",
"+++XXX@@@###+++###@@@XXXXXX###@@@XXX@@@%%%###@@@",
"+++XXX@@@###+++###@@@XXXXXX###@@@XXX@@@%%%###@@@",
"###%%%XXX@@@XXX.........XXX@@@......XXX@@@@@@XXX",
"###%%%XXX@@@XXX.........XXX@@@......XXX@@@@@@XXX",
"###%%%XXX@@@XXX.........XXX@@@......XXX@@@@@@XXX",
"@@@###%%%...$$$&&&.........XXX&&&$$$...XXX%%%###",
"@@@###%%%...$$$&&&.........XXX&&&$$$...XXX%%%###",
"@@@###%%%...$$$&&&.........XXX&&&$$$...XXX%%%###",
"@@@+++@@@...&&&&&&......   ...&&&&&&...%%%###@@@",
"@@@+++@@@...&&&&&&......   ...&&&&&&...%%%###@@@",
"@@@+++@@@...&&&&&&......   ...&&&&&&...%%%###@@@",
"###%%%XXX...$$$$$$OOO&&&&&&OOO$$$$$$...###@@@+++",
"###%%%XXX...$$$$$$OOO&&&&&&OOO$$$$$$...###@@@+++",
"###%%%XXX...$$$$$$OOO&&&&&&OOO$$$$$$...###@@@+++",
"@@@###%%%...$$$$$$......   ...$$$$$$      %%%###",
"@@@###%%%...$$$$$$......   ...$$$$$$      %%%###",
"@@@###%%%...$$$$$$......   ...$$$$$$      %%%###",
"@@@@@@###   $$$$$$...         $$$$$$   %%%###@@@",
"@@@@@@###   $$$$$$...         $$$$$$   %%%###@@@",
"@@@@@@###   $$$$$$...         $$$$$$   %%%###@@@",
"@@@+++XXX   $$$$$$OOO$$$$$$OOO$$$$$$   ###+++XXX",
"@@@+++XXX   $$$$$$OOO$$$$$$OOO$$$$$$   ###+++XXX",
"@@@+++XXX   $$$$$$OOO$$$$$$OOO$$$$$$   ###+++XXX",
"%%%%%%      OOO$$$            $$$OOO      %%%%%%",
"%%%%%%      OOO$$$            $$$OOO      %%%%%%",
"%%%%%%      OOO$$$            $$$OOO      %%%%%%",
"@@@###%%%   OOOOOO            OOOOOO   %%%###@@@",
"@@@###%%%   OOOOOO            OOOOOO   %%%###@@@",
"@@@###%%%   OOOOOO            OOOOOO   %%%###@@@",
"+++XXX@@@   oooOOOoooOOOOOOoooOOOooo      @@@XXX",
"+++XXX@@@   oooOOOoooOOOOOOoooOOOooo      @@@XXX",
"+++XXX@@@   oooOOOoooOOOOOOoooOOOooo      @@@XXX",
"@@@###%%%   oooooo%%%      %%%oooooo   %%%###+++",
"@@@###%%%   oooooo%%%      %%%oooooo   %%%###+++",
"@@@###%%%   oooooo%%%      %%%oooooo   %%%###+++",
"+++@@@###%%%ooo%%%###XXX%%%###ooo###%%%###+++@@@",
"+++@@@###%%%ooo%%%###XXX%%%###ooo###%%%###+++@@@",
"+++@@@###%%%ooo%%%###XXX%%%###ooo###%%%###+++@@@",
"@@@+++@@@###XXX###@@@+++###@@@XXX@@@###XXX@@@@@@",
"@@@+++@@@###XXX###@@@+++###@@@XXX@@@###XXX@@@@@@",
"@@@+++@@@###XXX###@@@+++###@@@XXX@@@###XXX@@@@@@"
};
