/* XPM */
static char *result[] = {
/* columns rows colors chars-per-pixel */
"48 48 11 1 ",
"  c #6E2727",
". c #484A77",
"X c #B33831",
"o c #FB6B1D",
"O c #F79617",
"+ c #F9C22B",
"@ c #4D65B4",
"# c #4D9BE6",
"$ c #FBFF86",
"% c #8FD3FF",
"& c None",
/* pixels */
"&&&XXXXXX&&&&&&&&&&&&&&&&&&&&&&&&&&&&&&XXXXXX&&&",
"&&&XXXXXX&&&&&&&&&&&&&&&&&&&&&&&&&&&&&&XXXXXX&&&",
"&&&XXXXXX&&&&&&&&&&&&&&&&&&&&&&&&&&&&&&XXXXXX&&&",
"XXXOOOXXX..............................XXXOOOXXX",
"XXXOOOXXX..............................XXXOOOXXX",
"XXXOOOXXX..............................XXXOOOXXX",
"XXX+++XXX######@@@############@@@######XXX+++XXX",
"XXX+++XXX######@@@############@@@######XXX+++XXX",
"XXX+++XXX######@@@############@@@######XXX+++XXX",
"XXX$$$XXX######@@@############@@@######XXX$$$XXX",
"XXX$$$XXX######@@@############@@@######XXX$$$XXX",
"XXX$$$XXX######@@@############@@@######XXX$$$XXX",
"XXX$$$XXX%%%%%%###%%%###%%%%%%###%%%###XXX$$$XXX",
"XXX$$$XXX%%%%%%###%%%###%%%%%%###%%%###XXX$$$XXX",
"XXX$$$XXX%%%%%%###%%%###%%%%%%###%%%###XXX$$$XXX",
"XXX+++XXX%%%%%%###%%%%%%%%%%%%###%%%%%%XXX+++XXX",
"XXX+++XXX%%%%%%###%%%%%%%%%%%%###%%%%%%XXX+++XXX",
"XXX+++XXX%%%%%%###%%%%%%%%%%%%###%%%%%%XXX+++XXX",
"XXX+++XXX%%%%%%###%%%%%%%%%%%%###%%%%%%XXX+++XXX",
"XXX+++XXX%%%%%%###%%%%%%%%%%%%###%%%%%%XXX+++XXX",
"XXX+++XXX%%%%%%###%%%%%%%%%%%%###%%%%%%XXX+++XXX",
"XXX+++XXX%%%%%%###%%%%%%%%%%%%###%%%%%%XXX+++XXX",
"XXX+++XXX%%%%%%###%%%%%%%%%%%%###%%%%%%XXX+++XXX",
"XXX+++XXX%%%%%%###%%%%%%%%%%%%###%%%%%%XXX+++XXX",
"XXXOOOXXX###%%%###XXXXXXXXXXXX###%%%###XXXOOOXXX",
"XXXOOOXXX###%%%###XXXXXXXXXXXX###%%%###XXXOOOXXX",
"XXXOOOXXX###%%%###XXXXXXXXXXXX###%%%###XXXOOOXXX",
"XXXOOOXXX######XXX$$$$$$++++++XXX######XXXOOOXXX",
"XXXOOOXXX######XXX$$$$$$++++++XXX######XXXOOOXXX",
"XXXOOOXXX######XXX$$$$$$++++++XXX######XXXOOOXXX",
"XXXoooXXX......   OOOXXXXXXOOO   ......XXXoooXXX",
"XXXoooXXX......   OOOXXXXXXOOO   ......XXXoooXXX",
"XXXoooXXX......   OOOXXXXXXOOO   ......XXXoooXXX",
"   XXXXXX######   ooo++++++ooo   ######XXXXXX   ",
"   XXXXXX######   ooo++++++ooo   ######XXXXXX   ",
"   XXXXXX######   ooo++++++ooo   ######XXXXXX   ",
"   OOO   ###%%%...            ...%%%###   OOO   ",
"   OOO   ###%%%...            ...%%%###   OOO   ",
"   OOO   ###%%%...            ...%%%###   OOO   ",
"   OOO   %%%%%%@@@############@@@%%%%%%   OOO   ",
"   OOO   %%%%%%@@@############@@@%%%%%%   OOO   ",
"   OOO   %%%%%%@@@############@@@%%%%%%   OOO   ",
"   ooo   ######...############...######   ooo   ",
"   ooo   ######...############...######   ooo   ",
"   ooo   ######...############...######   ooo   ",
"   XXX   @@@@@@...@@@@@@@@@@@@...@@@@@@   XXX   ",
"   XXX   @@@@@@...@@@@@@@@@@@@...@@@@@@   XXX   ",
"   XXX   @@@@@@...@@@@@@@@@@@@...@@@@@@   XXX   "
};
