/* XPM */
static char *result[] = {
/* columns rows colors chars-per-pixel */
"48 48 20 1 ",
"  c #3E3546",
". c #39314B",
"X c #7A3045",
"o c #0B5E65",
"O c #694F62",
"+ c #625565",
"@ c #9E4539",
"# c #C32454",
"$ c #F04F78",
"% c #E6904E",
"& c #FBB954",
"* c #0B8A8F",
"= c #0EAF9B",
"- c #30E1B9",
"; c #9BABB2",
": c #F68181",
"> c #FCA790",
", c #C7DCD0",
"< c white",
"1 c None",
/* pixels */
"111111111111111111############111111111111111111",
"111111111111111111############111111111111111111",
"111111111111111111############111111111111111111",
"111111111111######$$$::::::$$$######111111111111",
"111111111111######$$$::::::$$$######111111111111",
"111111111111######$$$::::::$$$######111111111111",
"111111111###>>>::::::$$$$$$::::::>>>###111111111",
"111111111###>>>::::::$$$$$$::::::>>>###111111111",
"111111111###>>>::::::$$$$$$::::::>>>###111111111",
"111111###>>>$$$>>>::::::::::::$$$:::>>>###111111",
"111111###>>>$$$>>>::::::::::::$$$:::>>>###111111",
"111111###>>>$$$>>>::::::::::::$$$:::>>>###111111",
"111###:::###>>>:::###$$$###:::>>>###:::###111111",
"111###:::###>>>:::###$$$###:::>>>###:::###111111",
"111###:::###>>>:::###$$$###:::>>>###:::###111111",
"111111###::::::###,,,###,,,###:::>>>######111111",
"111111###::::::###,,,###,,,###:::>>>######111111",
"111111###::::::###,,,###,,,###:::>>>######111111",
"111111###$$$###,,,<<<,,,<<<,,,###$$$###:::###111",
"111111###$$$###,,,<<<,,,<<<,,,###$$$###:::###111",
"111111###$$$###,,,<<<,,,<<<,,,###$$$###:::###111",
"111###:::$$$###%%%...%%%%%%...%%%###$$$###111111",
"111###:::$$$###%%%...%%%%%%...%%%###$$$###111111",
"111###:::$$$###%%%...%%%%%%...%%%###$$$###111111",
"111111###$$$###&&&###&&&&&&###&&&###$$$###111111",
"111111###$$$###&&&###&&&&&&###&&&###$$$###111111",
"111111###$$$###&&&###&&&&&&###&&&###$$$###111111",
"111111111###$$$%%%&&&&&&&&&&&&%%%$$$###111111111",
"111111111###$$$%%%&&&&&&&&&&&&%%%$$$###111111111",
"111111111###$$$%%%&&&&&&&&&&&&%%%$$$###111111111",
"111111111111###***===%%%%%%===***###111111111111",
"111111111111###***===%%%%%%===***###111111111111",
"111111111111###***===%%%%%%===***###111111111111",
"111111111OOOOOO===---++++++---===OOOOOO111111111",
"111111111OOOOOO===---++++++---===OOOOOO111111111",
"111111111OOOOOO===---++++++---===OOOOOO111111111",
"111111OOO<<<<<<OOO===------===OOO<<<<<<OOO111111",
"111111OOO<<<<<<OOO===------===OOO<<<<<<OOO111111",
"111111OOO<<<<<<OOO===------===OOO<<<<<<OOO111111",
"111111   ,,,;;;   XXX@@@@@@XXX   ;;;,,,   111111",
"111111   ,,,;;;   XXX@@@@@@XXX   ;;;,,,   111111",
"111111   ,,,;;;   XXX@@@@@@XXX   ;;;,,,   111111",
"111111111      ---===******===---      111111111",
"111111111      ---===******===---      111111111",
"111111111      ---===******===---      111111111",
"111111111111111      oooooo      111111111111111",
"111111111111111      oooooo      111111111111111",
"111111111111111      oooooo      111111111111111"
};
