/* XPM */
static char *result[] = {
/* columns rows colors chars-per-pixel */
"48 48 12 1 ",
"  c #3E3546",
". c #0B5E65",
"X c #694F62",
"o c #C32454",
"O c #F04F78",
"+ c #0B8A8F",
"@ c #0EAF9B",
"# c #F68181",
"$ c #FCA790",
"% c #C7DCD0",
"& c white",
"* c #0EAF9B",
/* pixels */
"******************oooooooooooo******************",
"******************oooooooooooo******************",
"******************oooooooooooo******************",
"************ooooooOOO######OOOoooooo************",
"************ooooooOOO######OOOoooooo************",
"************ooooooOOO######OOOoooooo************",
"*********ooo$$$######OOOOOO######$$$ooo*********",
"*********ooo$$$######OOOOOO######$$$ooo*********",
"*********ooo$$$######OOOOOO######$$$ooo*********",
"******ooo$$$###OOO$$$######$$$$$$OOO$$$ooo******",
"******ooo$$$###OOO$$$######$$$$$$OOO$$$ooo******",
"******ooo$$$###OOO$$$######$$$$$$OOO$$$ooo******",
"******ooo###ooo$$$###$$$$$$$$$###$$$ooo###ooo***",
"******ooo###ooo$$$###$$$$$$$$$###$$$ooo###ooo***",
"******ooo###ooo$$$###$$$$$$$$$###$$$ooo###ooo***",
"******oooooo$$$###$$$############OOO###ooo******",
"******oooooo$$$###$$$############OOO###ooo******",
"******oooooo$$$###$$$############OOO###ooo******",
"***ooo###oooOOO###OOO###OOO###OOO###OOOooo******",
"***ooo###oooOOO###OOO###OOO###OOO###OOOooo******",
"***ooo###oooOOO###OOO###OOO###OOO###OOOooo******",
"******oooOOOooo###ooo###ooo###oooOOOooo###ooo***",
"******oooOOOooo###ooo###ooo###oooOOOooo###ooo***",
"******oooOOOooo###ooo###ooo###oooOOOooo###ooo***",
"******oooOOOoooOOOoooOOOoooOOOoooOOOoooooo******",
"******oooOOOoooOOOoooOOOoooOOOoooOOOoooooo******",
"******oooOOOoooOOOoooOOOoooOOOoooOOOoooooo******",
"*********oooOOOoooOOOoooOOOoooOOOoooooo*********",
"*********oooOOOoooOOOoooOOOoooOOOoooooo*********",
"*********oooOOOoooOOOoooOOOoooOOOoooooo*********",
"************ooooooOOOoooOOOoooOOOooo************",
"************ooooooOOOoooOOOoooOOOooo************",
"************ooooooOOOoooOOOoooOOOooo************",
"*********XXX...+++ooo+++ooo+++ooo...XXX*********",
"*********XXX...+++ooo+++ooo+++ooo...XXX*********",
"*********XXX...+++ooo+++ooo+++ooo...XXX*********",
"******XXX&&&...+++@@@@@@@@@@@@+++...&&&XXX******",
"******XXX&&&...+++@@@@@@@@@@@@+++...&&&XXX******",
"******XXX&&&...+++@@@@@@@@@@@@+++...&&&XXX******",
"******   %%%...++++++@@@@@@++++++...%%%   ******",
"******   %%%...++++++@@@@@@++++++...%%%   ******",
"******   %%%...++++++@@@@@@++++++...%%%   ******",
"*********   ...+++@@@@@@@@@@@@+++...   *********",
"*********   ...+++@@@@@@@@@@@@+++...   *********",
"*********   ...+++@@@@@@@@@@@@+++...   *********",
"***************..................***************",
"***************..................***************",
"***************..................***************"
};
