/* XPM */
static char *result[] = {
/* columns rows colors chars-per-pixel */
"48 48 19 1 ",
"  c #3E3546",
". c #39314B",
"X c #323353",
"o c #6B3E75",
"O c #165A4C",
"+ c #484A77",
"@ c #625565",
"# c #AE2334",
"$ c #E83B3B",
"% c #239063",
"& c #1EBC73",
"* c #91DB69",
"= c #7F708A",
"- c #4D65B4",
"; c #4D9BE6",
": c #8FD3FF",
"> c #C7DCD0",
", c white",
"< c #0EAF9B",
/* pixels */
"<<<<<<<<<<<<<<<<<<------------<<<<<<<<<<<<<<<<<<",
"<<<<<<<<<<<<<<<<<<------------<<<<<<<<<<<<<<<<<<",
"<<<<<<<<<<<<<<<<<<------------<<<<<<<<<<<<<<<<<<",
"<<<<<<<<<<<<------::::::::::::------<<<<<<<<<<<<",
"<<<<<<<<<<<<------::::::::::::------<<<<<<<<<<<<",
"<<<<<<<<<<<<------::::::::::::------<<<<<<<<<<<<",
"<<<<<<<<<---;;;::::::::::::::::::;;;---<<<<<<<<<",
"<<<<<<<<<---;;;::::::::::::::::::;;;---<<<<<<<<<",
"<<<<<<<<<---;;;::::::::::::::::::;;;---<<<<<<<<<",
"<<<<<<<<<---;;;:::;;;------;;;:::;;;---<<<<<<<<<",
"<<<<<<<<<---;;;:::;;;------;;;:::;;;---<<<<<<<<<",
"<<<<<<<<<---;;;:::;;;------;;;:::;;;---<<<<<<<<<",
"<<<<<<<<<---;;;;;;---      ---;;;;;;---<<<<<<<<<",
"<<<<<<<<<---;;;;;;---      ---;;;;;;---<<<<<<<<<",
"<<<<<<<<<---;;;;;;---      ---;;;;;;---<<<<<<<<<",
"<<<<<<<<<+++------======@@@   ------+++<<<<<<<<<",
"<<<<<<<<<+++------======@@@   ------+++<<<<<<<<<",
"<<<<<<<<<+++------======@@@   ------+++<<<<<<<<<",
"<<<<<<OOO***@@@%%%@@@@@@   %%%%%%@@@***OOO<<<<<<",
"<<<<<<OOO***@@@%%%@@@@@@   %%%%%%@@@***OOO<<<<<<",
"<<<<<<OOO***@@@%%%@@@@@@   %%%%%%@@@***OOO<<<<<<",
"<<<<<<OOO&&&******...   &&&...******&&&OOO<<<<<<",
"<<<<<<OOO&&&******...   &&&...******&&&OOO<<<<<<",
"<<<<<<OOO&&&******...   &&&...******&&&OOO<<<<<<",
"<<<<<<<<<XXX&&&***ooo******ooo***&&&XXX<<<<<<<<<",
"<<<<<<<<<XXX&&&***ooo******ooo***&&&XXX<<<<<<<<<",
"<<<<<<<<<XXX&&&***ooo******ooo***&&&XXX<<<<<<<<<",
"<<<<<<<<<<<<XXX&&&************&&&XXX<<<<<<<<<<<<",
"<<<<<<<<<<<<XXX&&&************&&&XXX<<<<<<<<<<<<",
"<<<<<<<<<<<<XXX&&&************&&&XXX<<<<<<<<<<<<",
"<<<<<<<<<<<<<<<OOO%%%&&&&&&%%%OOO<<<<<<<<<<<<<<<",
"<<<<<<<<<<<<<<<OOO%%%&&&&&&%%%OOO<<<<<<<<<<<<<<<",
"<<<<<<<<<<<<<<<OOO%%%&&&&&&%%%OOO<<<<<<<<<<<<<<<",
"<<<<<<<<<OOOOOO$$$,,,@@@@@@,,,$$$OOOOOO<<<<<<<<<",
"<<<<<<<<<OOOOOO$$$,,,@@@@@@,,,$$$OOOOOO<<<<<<<<<",
"<<<<<<<<<OOOOOO$$$,,,@@@@@@,,,$$$OOOOOO<<<<<<<<<",
"<<<<<<OOO******OOO$$$$$$$$$$$$OOO******OOO<<<<<<",
"<<<<<<OOO******OOO$$$$$$$$$$$$OOO******OOO<<<<<<",
"<<<<<<OOO******OOO$$$$$$$$$$$$OOO******OOO<<<<<<",
"<<<<<<XXX&&&%%%XXX###>>>>>>###XXX%%%&&&XXX<<<<<<",
"<<<<<<XXX&&&%%%XXX###>>>>>>###XXX%%%&&&XXX<<<<<<",
"<<<<<<XXX&&&%%%XXX###>>>>>>###XXX%%%&&&XXX<<<<<<",
"<<<<<<<<<XXXXXX;;;---++++++---;;;XXXXXX<<<<<<<<<",
"<<<<<<<<<XXXXXX;;;---++++++---;;;XXXXXX<<<<<<<<<",
"<<<<<<<<<XXXXXX;;;---++++++---;;;XXXXXX<<<<<<<<<",
"<<<<<<<<<<<<<<<      <<<<<<      <<<<<<<<<<<<<<<",
"<<<<<<<<<<<<<<<      <<<<<<      <<<<<<<<<<<<<<<",
"<<<<<<<<<<<<<<<      <<<<<<      <<<<<<<<<<<<<<<"
};
